<?xml version="1.0" encoding="utf-8"?>
<!-- Generator: Adobe Illustrator 28.0.0, SVG Export Plug-In . SVG Version: 6.00 Build 0)  -->
<svg version="1.1" id="Capa_1" xmlns="http://www.w3.org/2000/svg" xmlns:xlink="http://www.w3.org/1999/xlink" x="0px" y="0px"
	 viewBox="0 0 273 237" style="enable-background:new 0 0 273 237;" xml:space="preserve">
<style type="text/css">
	.st0{fill:#FE9090;}
</style>
<path class="st0" d="M142.1,237c32.7,0,59.2-26.5,59.2-59.2c32.7,0,59.3-26.5,59.3-59.2s-26.5-59.2-59.3-59.2
	c0-32.7-26.5-59.2-59.2-59.2S82.9,26.5,82.9,59.2c-32.7,0-59.3,26.5-59.3,59.2s26.5,59.2,59.3,59.2C82.9,210.5,109.4,237,142.1,237
	 M186.6,59.2c0,1.1-0.1,2.3-0.4,3.7c-8.1,3.6-16.2,9.5-23.7,16.1c-6.3-3.2-13.3-4.9-20.3-4.9c-7.3,0-14.2,1.8-20.3,4.9
	c-7.5-6.6-15.6-12.5-23.7-16.1c-0.3-1.2-0.5-2.4-0.5-3.7c0-24.5,19.9-44.4,44.4-44.4S186.6,34.7,186.6,59.2 M174.6,148.9
	c7.7-8.2,12-19.1,12-30.4c0-11.3-4.3-22.2-12-30.4c3.2-2.7,6.4-5.1,9.6-7.2c7.5-4.9,13.3-6.8,17.3-6.8c24.5,0,44.4,19.9,44.4,44.4
	s-19.9,44.4-44.4,44.4c-4,0-9.8-1.9-17.3-6.8C180.8,153.9,177.6,151.5,174.6,148.9 M121.8,158c12.8,6.6,27.9,6.6,40.6,0
	c7.5,6.6,15.6,12.5,23.7,16.1c0.3,1.4,0.4,2.6,0.4,3.7c0,24.5-19.9,44.4-44.4,44.4s-44.4-19.9-44.4-44.4c0-1.1,0.1-2.3,0.4-3.7
	C106.2,170.5,114.3,164.6,121.8,158 M109.7,88.1c-7.7,8.2-12,19.1-12,30.4c0,11.8,4.6,22.5,12,30.4c-3.1,2.6-6.3,5-9.6,7.2
	c-7.5,4.9-13.3,6.8-17.3,6.8c-24.5,0-44.4-19.9-44.4-44.4s19.9-44.4,44.4-44.4c4,0,9.8,1.9,17.3,6.8C103.3,83,106.6,85.4,109.7,88.1
	 M142.1,133.3c-8.2,0-14.8-6.6-14.8-14.8s6.6-14.8,14.8-14.8c8.2,0,14.8,6.6,14.8,14.8S150.3,133.3,142.1,133.3"/>
</svg>
