<?xml version="1.0" encoding="utf-8"?>
<!-- Generator: Adobe Illustrator 28.0.0, SVG Export Plug-In . SVG Version: 6.00 Build 0)  -->
<svg version="1.1" id="Capa_1" xmlns="http://www.w3.org/2000/svg" xmlns:xlink="http://www.w3.org/1999/xlink" x="0px" y="0px"
	 viewBox="0 0 273 237" style="enable-background:new 0 0 273 237;" xml:space="preserve">
<style type="text/css">
	.st0{fill:#FE9090;}
</style>
<g>
	<path class="st0" d="M98.3,192.6v-44.4h59.3v7.4c0,4.1,3.3,7.4,7.4,7.4c4.1,0,7.4-3.3,7.4-7.4v-7.4h14.8v44.4H98.3z"/>
	<path class="st0" d="M113.1,29.6v5.1c-34.5,12.2-59.2,45.1-59.2,83.8V200c0,20.5,16.6,37,37,37h103.7c20.5,0,37-16.6,37-37v-81.5
		c0-37.7-23.7-71.3-59.2-83.8v-5.1c0-16.4-13.3-29.6-29.6-29.6S113.1,13.3,113.1,29.6 M142.7,14.8c8.2,0,14.8,6.6,14.8,14.8v1.2
		c-9.8-1.7-19.8-1.7-29.6,0v-1.2C127.9,21.4,134.5,14.8,142.7,14.8 M142.7,59.2c29.5,0,54.5,21.6,58.7,50.8c0.6,4-2.1,7.8-6.2,8.5
		c-4,0.6-7.8-2.1-8.5-6.2c0-0.1,0-0.2,0-0.3c-3.5-24.3-26-41.2-50.3-37.7c-19.6,2.8-34.9,18.2-37.7,37.7c-0.5,4.1-4.2,6.9-8.3,6.4
		c-4.1-0.5-6.9-4.2-6.4-8.3c0-0.1,0-0.2,0-0.3C88.3,80.9,113.3,59.2,142.7,59.2 M90.9,133.3h103.7c4.1,0,7.4,3.3,7.4,7.4V200
		c0,4.1-3.3,7.4-7.4,7.4H90.9c-4.1,0-7.4-3.3-7.4-7.4v-59.2C83.5,136.6,86.8,133.3,90.9,133.3"/>
</g>
</svg>
