<?xml version="1.0" encoding="utf-8"?>
<!-- Generator: Adobe Illustrator 28.0.0, SVG Export Plug-In . SVG Version: 6.00 Build 0)  -->
<svg version="1.1" id="Capa_1" xmlns="http://www.w3.org/2000/svg" xmlns:xlink="http://www.w3.org/1999/xlink" x="0px" y="0px"
	 viewBox="0 0 273 237" style="enable-background:new 0 0 273 237;" xml:space="preserve">
<style type="text/css">
	.st0{fill:#FE9090;}
</style>
<path class="st0" d="M81.2,0C68.1,0,57.5,10.6,57.5,23.7v7.9h63.2v-7.9C120.7,10.6,110.1,0,97,0H81.2z M120.7,47.4v15.8h31.6V47.4
	h63.2v13.9c0,3,1.7,5.7,4.4,7.1l14.1,7.1c8,4,13.1,12.2,13.1,21.2v92.9h-94.8v-23.7c0-2.1,0.8-4.1,2.3-5.6l13.5-13.5v-12.5
	c0-4.4-3.5-7.9-7.9-7.9h-47.4c-4.4,0-7.9,3.5-7.9,7.9v12.5l13.5,13.5c1.5,1.5,2.3,3.5,2.3,5.6v23.7H25.9V96.7
	c0-9,5.1-17.2,13.1-21.2l14.1-7.1c2.7-1.3,4.4-4.1,4.4-7.1V47.4H120.7z M25.9,205.4v7.9c0,13.1,10.6,23.7,23.7,23.7l0,0H97
	c13.1,0,23.7-10.6,23.7-23.7l0,0v-7.9H25.9z M152.3,205.4v7.9c0,13.1,10.6,23.7,23.7,23.7l0,0h47.4c13.1,0,23.7-10.6,23.7-23.7l0,0
	v-7.9H152.3z M215.5,31.6h-63.2v-7.9C152.3,10.6,162.9,0,176,0h15.8c13.1,0,23.7,10.6,23.7,23.7V31.6z"/>
</svg>
