<?xml version="1.0" encoding="utf-8"?>
<!-- Generator: Adobe Illustrator 28.0.0, SVG Export Plug-In . SVG Version: 6.00 Build 0)  -->
<svg version="1.1" id="Capa_1" xmlns="http://www.w3.org/2000/svg" xmlns:xlink="http://www.w3.org/1999/xlink" x="0px" y="0px"
	 viewBox="0 0 273 237" style="enable-background:new 0 0 273 237;" xml:space="preserve">
<style type="text/css">
	.st0{fill:#FFFFFF;}
</style>
<path class="st0" d="M157.3,15.6c-6.1-20.7-35.5-20.7-41.6,0l-1.5,5c-3.4,11.5-15.4,18.1-26.9,14.7c-1.5-0.4-2.9-1-4.3-1.8L78.4,31
	C59.4,20.6,38.6,41.4,49,60.4l2.5,4.6c6.6,12.1,0.3,27.3-12.9,31.2l-5,1.5c-20.7,6.1-20.7,35.5,0,41.6l5,1.5
	c11.5,3.4,18.1,15.4,14.7,26.9c-0.4,1.5-1,2.9-1.8,4.3l-2.5,4.6c-10.3,19,10.4,39.8,29.4,29.4l4.6-2.5c10.5-5.7,23.7-1.9,29.4,8.7
	c0.7,1.4,1.3,2.8,1.8,4.3l1.5,5c6.1,20.7,35.5,20.7,41.6,0l1.5-5c3.4-11.5,15.4-18.1,26.9-14.7c1.5,0.4,2.9,1,4.3,1.8l4.6,2.5
	c19,10.3,39.8-10.4,29.4-29.4l-2.5-4.6c-5.7-10.5-1.9-23.7,8.7-29.4c1.4-0.7,2.8-1.3,4.3-1.8l5-1.5c20.7-6.1,20.7-35.5,0-41.6
	l-5-1.5c-11.5-3.4-18.1-15.4-14.7-26.9c0.4-1.5,1-2.9,1.8-4.3l2.5-4.6c10.3-19-10.4-39.8-29.4-29.4l-4.6,2.5
	c-10.5,5.7-23.7,1.9-29.4-8.7c-0.7-1.4-1.3-2.8-1.8-4.3L157.3,15.6z M136.5,161.9c-24,0-43.4-19.4-43.4-43.4s19.4-43.4,43.4-43.4
	s43.4,19.4,43.4,43.4S160.4,161.9,136.5,161.9L136.5,161.9z"/>
</svg>
