<?xml version="1.0" encoding="utf-8"?>
<!-- Generator: Adobe Illustrator 28.0.0, SVG Export Plug-In . SVG Version: 6.00 Build 0)  -->
<svg version="1.1" id="Capa_1" xmlns="http://www.w3.org/2000/svg" xmlns:xlink="http://www.w3.org/1999/xlink" x="0px" y="0px"
	 viewBox="0 0 273 237" style="enable-background:new 0 0 273 237;" xml:space="preserve">
<style type="text/css">
	.st0{fill:#FFFFFF;}
</style>
<path class="st0" d="M136.5,70.4c-26.6,0-48.1,21.5-48.1,48.1s21.5,48.1,48.1,48.1s48.1-21.5,48.1-48.1S163.1,70.4,136.5,70.4
	 M103.2,118.5c0-18.4,14.9-33.3,33.3-33.3s33.3,14.9,33.3,33.3s-14.9,33.3-33.3,33.3S103.2,136.9,103.2,118.5"/>
<path class="st0" d="M163.1,19.9c-7.8-26.5-45.4-26.5-53.2,0l-1.4,4.7c-2,6.9-9.2,10.8-16.1,8.8c-0.9-0.3-1.7-0.6-2.5-1L85.6,30
	C61.3,16.7,34.7,43.3,48,67.6l2.4,4.3c3.4,6.3,1.1,14.1-5.2,17.5c-0.8,0.4-1.7,0.8-2.5,1L38,91.8c-26.5,7.8-26.5,45.4,0,53.2
	l4.7,1.4c6.9,2,10.8,9.2,8.8,16.1c-0.3,0.9-0.6,1.7-1,2.5l-2.4,4.3c-13.2,24.3,13.3,50.9,37.6,37.6l4.3-2.4
	c6.3-3.4,14.1-1.1,17.5,5.2c0.4,0.8,0.8,1.7,1,2.5l1.4,4.7c7.8,26.5,45.4,26.5,53.2,0l1.4-4.7c2-6.9,9.2-10.8,16.1-8.8
	c0.9,0.3,1.7,0.6,2.5,1l4.3,2.4c24.3,13.2,50.9-13.4,37.6-37.6l-2.4-4.3c-3.4-6.3-1.1-14.1,5.2-17.5c0.8-0.4,1.7-0.8,2.5-1l4.7-1.4
	c26.5-7.8,26.5-45.4,0-53.2l-4.7-1.4c-6.9-2-10.8-9.2-8.8-16.1c0.3-0.9,0.6-1.7,1-2.5l2.4-4.3c13.2-24.3-13.4-50.9-37.6-37.6
	l-4.3,2.4c-6.3,3.4-14.1,1.1-17.5-5.2c-0.4-0.8-0.8-1.7-1-2.5L163.1,19.9z M124.1,24.1c3.6-12.4,21.2-12.4,24.8,0l1.4,4.7
	c4.3,14.7,19.8,23.1,34.5,18.8c1.9-0.6,3.7-1.3,5.4-2.3l4.3-2.4c11.3-6.1,23.7,6.2,17.5,17.6l-2.4,4.3c-7.3,13.5-2.4,30.3,11.1,37.6
	c1.7,0.9,3.5,1.7,5.4,2.2l4.7,1.4c12.4,3.6,12.4,21.2,0,24.8l-4.7,1.4c-14.7,4.3-23.1,19.8-18.8,34.5c0.6,1.9,1.3,3.7,2.3,5.4
	l2.4,4.3c6.1,11.3-6.2,23.7-17.6,17.5l-4.3-2.4c-13.5-7.3-30.3-2.4-37.6,11.1c-0.9,1.7-1.7,3.6-2.3,5.4l-1.4,4.7
	c-3.6,12.4-21.2,12.4-24.8,0l-1.4-4.7c-4.3-14.7-19.8-23.1-34.5-18.8c-1.9,0.6-3.7,1.3-5.4,2.2l-4.3,2.4
	c-11.3,6.1-23.7-6.2-17.5-17.6l2.4-4.3c7.3-13.5,2.4-30.3-11.1-37.6c-1.7-0.9-3.6-1.7-5.5-2.3l-4.7-1.4c-12.4-3.6-12.4-21.2,0-24.8
	l4.7-1.4c14.7-4.3,23.1-19.8,18.8-34.5c-0.6-1.9-1.3-3.7-2.2-5.4l-2.3-4C54.8,49.2,67.2,36.8,78.5,43l4.3,2.4
	c13.5,7.3,30.3,2.4,37.6-11.1c0.9-1.7,1.7-3.5,2.2-5.4L124.1,24.1z"/>
</svg>
