<svg width="306" height="306" viewBox="0 0 306 306" fill="none" xmlns="http://www.w3.org/2000/svg">
<path d="M152.992 305.618C237.284 305.618 305.616 237.285 305.616 152.993C305.616 68.701 237.284 0.368713 152.992 0.368713C68.6998 0.368713 0.367554 68.701 0.367554 152.993C0.367554 237.285 68.6998 305.618 152.992 305.618Z" fill="#040403"/>
<path d="M295.993 151.77C295.993 230.747 231.97 294.771 152.993 294.771C74.0151 294.771 9.99207 230.747 9.99207 151.77" fill="#E0E4E8"/>
<path d="M9.99207 154.215C9.99207 75.2375 74.0157 11.2139 152.993 11.2139C231.97 11.2139 295.993 75.2375 295.993 154.215" fill="#E64C3C"/>
<path d="M300.871 120.606H5.11365V185.99H300.871V120.606Z" fill="#040404"/>
<path d="M152.992 228.626C194.763 228.626 228.625 194.764 228.625 152.992C228.625 111.221 194.763 77.3591 152.992 77.3591C111.22 77.3591 77.3583 111.221 77.3583 152.992C77.3583 194.764 111.22 228.626 152.992 228.626Z" fill="black"/>
<path d="M152.992 198.837C178.311 198.837 198.836 178.312 198.836 152.993C198.836 127.673 178.311 107.148 152.992 107.148C127.672 107.148 107.147 127.673 107.147 152.993C107.147 178.312 127.672 198.837 152.992 198.837Z" fill="#E0E4E8"/>
<path d="M152.992 184.172C170.212 184.172 184.172 170.213 184.172 152.992C184.172 135.772 170.212 121.813 152.992 121.813C135.772 121.813 121.812 135.772 121.812 152.992C121.812 170.213 135.772 184.172 152.992 184.172Z" fill="black"/>
<path d="M152.992 175.007C165.15 175.007 175.006 165.151 175.006 152.993C175.006 140.834 165.15 130.978 152.992 130.978C140.834 130.978 130.978 140.834 130.978 152.993C130.978 165.151 140.834 175.007 152.992 175.007Z" fill="#E0E4E8"/>
</svg>
