<svg width="273" height="237" viewBox="0 0 273 237" fill="none" xmlns="http://www.w3.org/2000/svg">
<path d="M215.721 237C238.517 237 255.938 217.448 255.938 194.679V67.7143H17.0625V194.679C17.0625 217.448 34.4833 237 57.2788 237H215.721ZM93.8438 101.571H179.156C181.419 101.571 183.589 102.463 185.189 104.051C186.789 105.638 187.688 107.791 187.688 110.036C187.688 112.281 186.789 114.434 185.189 116.021C183.589 117.608 181.419 118.5 179.156 118.5H93.8438C91.5811 118.5 89.4112 117.608 87.8112 116.021C86.2113 114.434 85.3125 112.281 85.3125 110.036C85.3125 107.791 86.2113 105.638 87.8112 104.051C89.4112 102.463 91.5811 101.571 93.8438 101.571ZM13.65 0C10.0298 0 6.55786 1.42683 3.99799 3.96661C1.43812 6.50639 0 9.95107 0 13.5429L0 33.8571C0 37.4489 1.43812 40.8936 3.99799 43.4334C6.55786 45.9732 10.0298 47.4 13.65 47.4H259.35C262.97 47.4 266.442 45.9732 269.002 43.4334C271.562 40.8936 273 37.4489 273 33.8571V13.5429C273 9.95107 271.562 6.50639 269.002 3.96661C266.442 1.42683 262.97 0 259.35 0H13.65Z" fill="#FE9090"/>
</svg>
