<?xml version="1.0" encoding="utf-8"?>
<!-- Generator: Adobe Illustrator 28.0.0, SVG Export Plug-In . SVG Version: 6.00 Build 0)  -->
<svg version="1.1" id="Capa_1" xmlns="http://www.w3.org/2000/svg" xmlns:xlink="http://www.w3.org/1999/xlink" x="0px" y="0px"
	 viewBox="0 0 273 237" style="enable-background:new 0 0 273 237;" xml:space="preserve">
<style type="text/css">
	.st0{fill:#FE9090;}
</style>
<path class="st0" d="M35,0.3c-15.8,0-29.5,10.9-33,26.3l134.4,82.2l134.4-82.2c-3.5-15.4-17.2-26.3-33-26.3H35z M1.2,166V46l98.1,60
	L1.2,166z M115.6,115.8L4.5,183.9c5.6,11.8,17.5,19.4,30.6,19.3h105.8c-2.9-8.1-4.3-16.7-4.3-25.4c0-22.5,9.9-43.8,27.2-58.3
	l-6.2-3.8l-20.9,12.8L115.6,115.8z M271.8,130V45.9l-98.1,60l5.7,3.5c10.4-5,21.7-7.6,33.2-7.6C236.5,101.8,257.8,112.8,271.8,130"
	/>
<path class="st0" d="M269,173.5c0,19.7-9.8,34.2-26.8,34.2c-8.5,0-16.9-3.9-18.9-11h-0.7c-2,7-9.2,10.9-17.2,10.9
	c-13,0-21.3-9.2-21.3-24.2v-8.9c0-14.3,8.1-23.7,21.3-23.7c9.9,0,14.7,5.6,16.1,10.7h0.5v-9.6h15.3v37c0,4.6,3,7.1,6.9,7.1
	c5.3,0,10.8-7,10.8-23.5v-2c0-21.6-16.1-39.3-42-39.3h-0.7c-26.7,0-44.6,18-44.6,46.1v2.7c0,31.6,20.9,44.9,43.5,44.9h0.8
	c8.6,0,15.8-1.2,20-3v12.4c-3.7,1.7-10.9,3-20.9,3h-0.7c-32.5,0-56.8-20-56.8-56.7v-3.6c0-35,24-58,58.9-58h0.6
	c35.8,0,56,24.2,56,51.3V173.5z M200.7,177.1v3.8c0,9.9,3.8,13.5,9.8,13.5c5.2,0,9.5-2.9,9.5-12.6v-6.2c0-8.7-4.6-12-9.7-12
	C204.5,163.7,200.7,167.9,200.7,177.1"/>
</svg>
