<?xml version="1.0" encoding="utf-8"?>
<!-- Generator: Adobe Illustrator 28.0.0, SVG Export Plug-In . SVG Version: 6.00 Build 0)  -->
<svg version="1.1" id="Capa_1" xmlns="http://www.w3.org/2000/svg" xmlns:xlink="http://www.w3.org/1999/xlink" x="0px" y="0px"
	 viewBox="0 0 273 237" style="enable-background:new 0 0 273 237;" xml:space="preserve">
<style type="text/css">
	.st0{fill:#FE9090;}
</style>
<path class="st0" d="M136.5,2.3C70.7,2.3,17.4,55.6,17.4,121.4c0,52.7,34.1,97.2,81.4,113c6,1,8.2-2.5,8.2-5.7
	c0-2.8-0.1-12.2-0.1-22.2c-29.9,5.5-37.7-7.3-40.1-14c-1.3-3.4-7.1-14-12.2-16.8c-4.2-2.2-10.1-7.7-0.1-7.9
	c9.4-0.1,16.1,8.6,18.3,12.2c10.7,18,27.8,13,34.7,9.8c1-7.7,4.2-13,7.6-15.9c-26.5-3-54.2-13.3-54.2-58.8c0-13,4.6-23.7,12.2-32
	c-1.2-3-5.4-15.2,1.2-31.6c0,0,10-3.1,32.8,12.2c9.5-2.7,19.7-4,29.8-4s20.2,1.3,29.8,4c22.8-15.5,32.8-12.2,32.8-12.2
	c6.6,16.4,2.4,28.6,1.2,31.6c7.6,8.3,12.2,18.9,12.2,32c0,45.7-27.8,55.8-54.3,58.8c4.3,3.7,8,10.9,8,22c0,15.9-0.1,28.7-0.1,32.8
	c0,3.1,2.2,6.8,8.2,5.7c48.5-16.4,81.1-61.8,81.1-113C255.6,55.6,202.3,2.3,136.5,2.3"/>
</svg>
